PathFileType	4	(x/y/z)	S01_M20_T09.trc
DataRate	CameraRate	NumFrames	NumMarkers	Units	OrigDataRate	OrigDataStartFrame	OrigNumFrames
240	240	6	51	mm	240	59	471
Frame#	Time	Sternum			R.Acromium			L.Acromium			Top.Head			R.ASIS			L.ASIS			R.PSIS			L.PSIS			R.Great.Tro			L.Great.Tro			R.Iliac.Crest			L.Iliac.Crest			V.Sacral			R.Thigh.Upper.Post			R.Thigh.Lower.Ant			R.Thigh.Lower.Post			R.Thigh.Upper.Ant			R.Knee.Lat			R.Knee.Med			R.Shank.Upper.Post			R.Shank.Lower.Ant			R.Shank.Lower.Post			R.Shank.Upper.Ant			R.Ankle.Lat			R.Ankle.Med			R.Heel.Upper			R.Heel.Med			R.Heel.Lat			R.Toe.Lat			R.Toe.Med			R.Toe.Tip			L.Thigh.Upper.Post			L.Thigh.Lower.Ant			L.Thigh.Lower.Post			L.Thigh.Upper.Ant			L.Knee.Lat			L.Knee.Med			L.Shank.Upper.Post			L.Shank.Lower.Ant			L.Shank.Lower.Post			L.Shank.Upper.Ant			L.Ankle.Lat			L.Ankle.Med			L.Heel.Upper			L.Heel.Med			L.Heel.Lat			L.Toe.Lat			L.Toe.Med			L.Toe.Tip			Cervical.Spine			Back			
		X1	Y1	Z1	X2	Y2	Z2	X3	Y3	Z3	X4	Y4	Z4	X5	Y5	Z5	X6	Y6	Z6	X7	Y7	Z7	X8	Y8	Z8	X9	Y9	Z9	X10	Y10	Z10	X11	Y11	Z11	X12	Y12	Z12	X13	Y13	Z13	X14	Y14	Z14	X15	Y15	Z15	X16	Y16	Z16	X17	Y17	Z17	X18	Y18	Z18	X19	Y19	Z19	X20	Y20	Z20	X21	Y21	Z21	X22	Y22	Z22	X23	Y23	Z23	X24	Y24	Z24	X25	Y25	Z25	X26	Y26	Z26	X27	Y27	Z27	X28	Y28	Z28	X29	Y29	Z29	X30	Y30	Z30	X31	Y31	Z31	X32	Y32	Z32	X33	Y33	Z33	X34	Y34	Z34	X35	Y35	Z35	X36	Y36	Z36	X37	Y37	Z37	X38	Y38	Z38	X39	Y39	Z39	X40	Y40	Z40	X41	Y41	Z41	X42	Y42	Z42	X43	Y43	Z43	X44	Y44	Z44	X45	Y45	Z45	X46	Y46	Z46	X47	Y47	Z47	X48	Y48	Z48	X49	Y49	Z49	X50	Y50	Z50	X51	Y51	Z51	

59	0.24167	-1017.8	1301	255.39	-1143.9	1555.9	416.42	-1138.7	1558.8	88.265	-1097.6	1870	237.35	-1067.4	1052.2	414.85	-1053.2	1042.9	151.02	-1300.3	1084.9	320.84	-1305.1	1086.8	217.42	-1142.7	1002.1	502.92	-1162.5	994.32	74.192	-1156.9	1154.7	474.51	-1165.3	1119.1	71.838	-1316.5	1050.1	266.59	-1026.8	711.36	498.31	-932.34	673.78	478.37	-987.84	632.21	479.97	-969.81	755.92	494.09	-953.81	580.11	478.46	-930.65	584.01	333.34	-1038.3	435.26	481.45	-987.4	342.57	448.85	-1053.9	366.77	466.37	-976.3	412.72	469.63	-1085.7	167.01	425.4	-1035.1	170.44	341.02	-1146.4	146.3	353.76	-1127.6	116.35	326.58	-1146.6	113.9	388.49	-977.24	74.936	480.37	-920.96	79.969	367.1	-868.35	92.961	432.96	-1208.4	714.97	103.49	-1126.6	640.5	106.44	-1203.5	625.8	121.71	-1140.2	732.97	86.62	-1161.1	536.28	116.13	-1137.6	539.28	259.5	-1226.3	397	103.19	-1168	305.56	129.4	-1229.6	318.65	109.13	-1163.8	381.77	118.52	-1252.1	107.29	152.01	-1224.8	118.28	249.78	-1322.4	77.125	200.17	-1311.9	52.357	233.09	-1315.9	52.022	171.15	-1104.6	39.514	134.42	-1077.8	47.429	254.93	-1014.8	56.133	203.16	-1226.3	1613	251.36	-1318.5	1303.4	272.69
60	0.24583	-1012.8	1300.3	255.27	-1138.7	1555.3	416.44	-1133.5	1558.4	88.298	-1092.1	1869.5	237.53	-1062.4	1051.6	414.69	-1048.8	1042.4	150.87	-1295.5	1084.6	320.98	-1300.5	1086.7	217.57	-1137.8	1001.7	502.84	-1158.3	994.11	74.083	-1151.8	1154.2	474.43	-1160.7	1118.7	71.813	-1311.8	1049.9	266.7	-1021.2	711.09	497.64	-926.54	673.98	477.44	-981.84	632.15	479.03	-964.36	755.91	493.44	-947.28	580.36	477.41	-924.29	584.52	332.34	-1028.6	433.67	480.95	-975.57	342.16	448.36	-1042.5	364.84	466.04	-966.12	412.59	468.91	-1069.5	164.1	425.44	-1019.2	168.54	341.01	-1129.7	141.53	353.91	-1110.1	111.94	326.85	-1129	109.27	388.78	-958.56	75.16	480.49	-902.57	81.256	367.26	-850.18	95.851	432.98	-1206	715.2	103.39	-1124.7	640.15	106.31	-1201.7	625.99	121.56	-1137.7	732.67	86.471	-1159.9	536.14	115.95	-1136.4	539.04	259.48	-1225.6	397.03	103.07	-1167.6	305.42	129.28	-1229.1	318.67	109.06	-1163.2	381.61	118.39	-1252	107.31	152.08	-1224.8	118.24	249.83	-1322.4	77.109	200.24	-1311.9	52.308	233.14	-1315.9	52.039	171.2	-1104.6	39.51	134.4	-1077.8	47.385	254.92	-1014.8	56.143	203.14	-1221	1612.7	251.46	-1313.5	1303.1	272.76
61	0.25	-1007.9	1299.6	255.16	-1133.4	1554.7	416.47	-1128.4	1558	88.342	-1086.5	1869	237.74	-1057.3	1051	414.57	-1044.3	1041.7	150.73	-1290.6	1084.2	321.12	-1295.9	1086.5	217.72	-1132.9	1001.1	502.77	-1154.2	993.88	73.98	-1146.8	1153.7	474.37	-1156.1	1118.2	71.811	-1307.1	1049.7	266.81	-1015.6	710.71	496.95	-920.86	674.05	476.5	-975.96	631.97	478.06	-958.99	755.77	492.79	-940.85	580.52	476.33	-918.02	584.93	331.31	-1018.8	432.06	480.48	-963.78	341.78	447.86	-1031.1	362.93	465.75	-955.99	412.45	468.18	-1053.3	161.33	425.52	-1003.3	166.79	341.02	-1113	136.92	354.15	-1092.6	107.72	327.19	-1111.3	104.83	389.15	-939.93	75.576	480.58	-884.31	82.735	367.36	-832.18	98.911	432.93	-1203.6	715.41	103.29	-1122.8	639.79	106.17	-1199.9	626.16	121.4	-1135.2	732.37	86.306	-1158.7	536	115.76	-1135.2	538.79	259.45	-1224.9	397.05	102.96	-1167.1	305.28	129.16	-1228.7	318.69	108.99	-1162.5	381.45	118.24	-1252	107.32	152.14	-1224.7	118.2	249.88	-1322.4	77.094	200.32	-1311.9	52.261	233.19	-1315.9	52.055	171.25	-1104.6	39.504	134.37	-1077.9	47.34	254.91	-1014.8	56.15	203.11	-1215.7	1612.3	251.58	-1308.6	1302.8	272.86
62	0.25417	-1002.9	1298.9	255.06	-1128.1	1554.1	416.51	-1123.2	1557.5	88.397	-1081	1868.4	237.96	-1052.3	1050.3	414.49	-1039.9	1041.1	150.62	-1285.8	1083.8	321.27	-1291.3	1086.3	217.88	-1127.9	1000.5	502.69	-1150	993.64	73.884	-1141.7	1153	474.33	-1151.5	1117.8	71.829	-1302.4	1049.4	266.93	-1010.2	710.22	496.22	-915.28	674	475.58	-970.19	631.68	477.07	-953.71	755.51	492.14	-934.5	580.59	475.23	-911.84	585.24	330.24	-1009.1	430.44	480.04	-952.05	341.44	447.36	-1019.8	361.06	465.51	-945.91	412.31	467.45	-1037.1	158.7	425.65	-987.49	165.17	341.06	-1096.2	132.47	354.47	-1075.2	103.68	327.6	-1093.7	100.57	389.6	-921.36	76.188	480.66	-866.21	84.404	367.41	-814.36	102.14	432.8	-1201.1	715.6	103.18	-1120.9	639.41	106.03	-1198.1	626.33	121.24	-1132.7	732.05	86.126	-1157.6	535.85	115.57	-1133.9	538.55	259.4	-1224.2	397.07	102.85	-1166.7	305.14	129.03	-1228.2	318.71	108.93	-1161.9	381.28	118.09	-1252	107.33	152.21	-1224.7	118.17	249.93	-1322.5	77.08	200.39	-1311.9	52.216	233.25	-1315.9	52.069	171.29	-1104.6	39.496	134.34	-1077.9	47.295	254.91	-1014.8	56.153	203.09	-1210.4	1611.8	251.72	-1303.6	1302.4	272.99
63	0.25833	-997.95	1298.1	254.98	-1122.8	1553.4	416.55	-1118.1	1557	88.465	-1075.4	1867.8	238.2	-1047.3	1049.5	414.43	-1035.3	1040.5	150.52	-1281	1083.4	321.43	-1286.6	1086.1	218.05	-1123	999.82	502.62	-1145.7	993.38	73.793	-1136.7	1152.3	474.32	-1146.8	1117.3	71.863	-1297.8	1049.1	267.05	-1004.8	709.62	495.47	-909.8	673.81	474.65	-964.54	631.28	476.05	-948.51	755.14	491.48	-928.24	580.58	474.12	-905.75	585.45	329.16	-999.37	428.81	479.62	-940.38	341.14	446.85	-1008.4	359.23	465.32	-935.9	412.18	466.72	-1020.9	156.23	425.83	-971.75	163.69	341.12	-1079.5	128.2	354.86	-1057.8	99.839	328.07	-1076	96.52	390.13	-902.87	76.999	480.72	-848.26	86.265	367.41	-796.72	105.55	432.59	-1198.7	715.78	103.06	-1119	639.02	105.88	-1196.2	626.47	121.07	-1130.2	731.72	85.932	-1156.4	535.7	115.38	-1132.6	538.3	259.34	-1223.5	397.09	102.75	-1166.3	305	128.9	-1227.8	318.73	108.87	-1161.2	381.11	117.94	-1252	107.34	152.28	-1224.7	118.14	249.97	-1322.5	77.067	200.46	-1311.9	52.175	233.29	-1315.9	52.084	171.34	-1104.6	39.485	134.3	-1077.9	47.249	254.91	-1014.8	56.152	203.07	-1205.1	1611.4	251.88	-1298.7	1302	273.14
64	0.2625	-992.99	1297.2	254.92	-1117.5	1552.6	416.61	-1113	1556.5	88.546	-1069.8	1867.2	238.46	-1042.4	1048.7	414.4	-1030.8	1039.8	150.43	-1276.2	1082.9	321.59	-1282	1085.8	218.22	-1118.1	999.06	502.54	-1141.5	993.1	73.705	-1131.7	1151.6	474.33	-1142.1	1116.8	71.912	-1293.1	1048.7	267.17	-999.56	708.92	494.69	-904.42	673.51	473.73	-959.01	630.77	475.02	-943.39	754.65	490.84	-922.07	580.48	473	-899.75	585.55	328.04	-989.68	427.18	479.23	-928.78	340.89	446.34	-997.13	357.44	465.16	-925.95	412.05	466	-1004.7	153.91	426.05	-956.08	162.35	341.21	-1062.8	124.11	355.33	-1040.4	96.195	328.6	-1058.3	92.672	390.72	-884.46	78.013	480.76	-830.49	88.314	367.35	-779.29	109.12	432.29	-1196.2	715.93	102.94	-1117	638.62	105.72	-1194.4	626.61	120.9	-1127.7	731.37	85.726	-1155.2	535.55	115.18	-1131.4	538.06	259.25	-1222.8	397.11	102.65	-1165.8	304.86	128.76	-1227.4	318.75	108.81	-1160.6	380.94	117.79	-1252	107.35	152.35	-1224.7	118.11	250.01	-1322.5	77.057	200.53	-1312	52.136	233.34	-1315.9	52.1	171.39	-1104.6	39.472	134.27	-1078	47.203	254.9	-1014.8	56.145	203.05	-1199.8	1610.9	252.05	-1293.7	1301.6	273.31
